<svg xmlns="http://www.w3.org/2000/svg" width="24" height="24" viewBox="0 0 24 24">
  <g id="check-circle-o" opacity="0.65">
    <path id="Shape" d="M12,24A12,12,0,0,1,3.515,3.515,12,12,0,0,1,20.486,20.486,11.922,11.922,0,0,1,12,24ZM12,1.688A10.316,10.316,0,0,0,7.988,21.5a10.314,10.314,0,0,0,11.3-16.8A10.268,10.268,0,0,0,12,1.688Zm-2.953,15.4a.845.845,0,0,1-.733-.427l-2.55-4.465a.842.842,0,0,1,.314-1.15.841.841,0,0,1,1.15.314l2,3.5,7.676-7.7a.844.844,0,0,1,1.192,1.2L9.672,16.809l-.009.009a.881.881,0,0,1-.2.158A.832.832,0,0,1,9.047,17.086Z" fill="rgba(0,0,0,0.25)"/>
  </g>
</svg>
