<svg id="Group_55_Copy_2" data-name="Group 55 Copy 2" xmlns="http://www.w3.org/2000/svg" width="18" height="18" viewBox="0 0 18 18">
  <rect id="Rectangle_40" data-name="Rectangle 40" width="18" height="18" fill="none"/>
  <g id="search" transform="translate(1.009 1.009)">
    <path id="Shape" d="M15.342,15.983a.635.635,0,0,1-.454-.188l-3.67-3.669a6.848,6.848,0,1,1,.908-.908L15.8,14.886a.649.649,0,0,1,0,.909A.643.643,0,0,1,15.342,15.983ZM6.85,1.284A5.569,5.569,0,0,0,1.721,9.015a5.59,5.59,0,0,0,2.963,2.963,5.563,5.563,0,0,0,6.1-1.193,5.576,5.576,0,0,0,1.193-1.77,5.587,5.587,0,0,0,0-4.331A5.59,5.59,0,0,0,9.015,1.721,5.5,5.5,0,0,0,6.85,1.284Z" transform="translate(0 0)" fill="#4a8aff" stroke="#4a8aff" stroke-width="1"/>
  </g>
</svg>
