<?xml version="1.0" standalone="no"?><!DOCTYPE svg PUBLIC "-//W3C//DTD SVG 1.1//EN" "http://www.w3.org/Graphics/SVG/1.1/DTD/svg11.dtd"><svg t="1562135013216" class="icon" viewBox="0 0 1024 1024" version="1.1" xmlns="http://www.w3.org/2000/svg" p-id="1232" xmlns:xlink="http://www.w3.org/1999/xlink" width="128" height="128"><defs><style type="text/css"></style></defs><path d="M512.723 21.149c-271.456 0-491.52 220.064-491.52 491.52s220.064 491.52 491.52 491.52 491.52-220.064 491.52-491.52-220.064-491.52-491.52-491.52zM798.679 358.605c0 0-359.601 337.36-359.711 337.456-8.069 7.865-21.094 7.7-28.959-0.369l-183.637-181.22c-7.865-8.069-7.7-21.094 0.369-28.959s21.094-7.7 28.959 0.369l169.097 166.53 345.279-323.134c8.069-7.865 21.094-7.7 28.959 0.369 7.878 8.069 7.714 21.094-0.355 28.959z" fill="#1afa29" p-id="1233"></path></svg>