<svg xmlns="http://www.w3.org/2000/svg" width="15.531" height="11.648" viewBox="0 0 15.531 11.648">
  <path id="个人资料" d="M14.439,11.648H1.092A1.093,1.093,0,0,1,0,10.556V1.092A1.093,1.093,0,0,1,1.092,0H14.439a1.093,1.093,0,0,1,1.093,1.092v9.464A1.093,1.093,0,0,1,14.439,11.648ZM1.092,1.092v9.464H14.439V1.092ZM5.7,9.707H3.033A1.093,1.093,0,0,1,1.941,8.615V7.28A2.426,2.426,0,0,1,3.01,5.27a1.923,1.923,0,0,1-.582-1.387,1.941,1.941,0,1,1,3.3,1.387A2.427,2.427,0,0,1,6.8,7.28V8.615A1.093,1.093,0,0,1,5.7,9.707ZM4.368,5.945A1.336,1.336,0,0,0,3.033,7.28c0,.02,0,.04,0,.06a.05.05,0,0,0,0,.015V8.538a.076.076,0,0,0,.076.076H5.627A.076.076,0,0,0,5.7,8.538V7.356a.045.045,0,0,0,0-.015c0-.02,0-.04,0-.06A1.337,1.337,0,0,0,4.368,5.945Zm0-2.912a.85.85,0,1,0,.85.85A.85.85,0,0,0,4.368,3.033ZM11.1,8.857H8.312a.546.546,0,1,1,0-1.092H11.1a.546.546,0,1,1,0,1.092Zm.971-2.487H8.312a.546.546,0,1,1,0-1.093h3.761a.546.546,0,0,1,0,1.093Zm.971-2.488H8.312a.546.546,0,1,1,0-1.092h4.732a.546.546,0,1,1,0,1.092Z" transform="translate(0 0)" fill="#cecccc"/>
</svg>
