<svg id="任务发布" xmlns="http://www.w3.org/2000/svg" width="18.438" height="18.438" viewBox="0 0 18.438 18.438">
  <rect id="Rectangle_44" data-name="Rectangle 44" width="18.438" height="18.438" fill="none"/>
  <g id="edit" transform="translate(1.152 1.153)">
    <path id="Shape" d="M15.485,16.133H.648a.648.648,0,0,1,0-1.3H15.485a.648.648,0,0,1,0,1.3ZM3.949,12.759a.579.579,0,0,1-.528-.8l1.8-4.238a.58.58,0,0,1,.122-.184L12.492.381a1.3,1.3,0,0,1,1.836,0l1.428,1.428a1.3,1.3,0,0,1,0,1.837L8.6,10.794a.58.58,0,0,1-.184.122l-4.24,1.8A.586.586,0,0,1,3.949,12.759ZM11.376,3.33h0L6.356,8.35,5.308,10.825,7.782,9.776l5.02-5.02L11.376,3.331Zm2.036-2.036h0l0,0L12.293,2.414,13.718,3.84l1.117-1.117,0,0L13.412,1.294Z" transform="translate(0 0)" fill="#0080ff"/>
  </g>
</svg>
