<svg xmlns="http://www.w3.org/2000/svg" width="13.021" height="16.341" viewBox="0 0 13.021 16.341">
  <path id="任务列表" d="M11.816,16.341H1.239A1.2,1.2,0,0,1,0,15.192V1.149A1.2,1.2,0,0,1,1.239,0H7.1a1.314,1.314,0,0,1,.493.1l.018.007.007,0,.023.01.073.037A1.31,1.31,0,0,1,7.958.34l4.716,4.476a1.1,1.1,0,0,1,.346.809v9.567A1.166,1.166,0,0,1,11.816,16.341ZM1.222,1.149V15.192H11.8V6.128H7.741A1.2,1.2,0,0,1,6.5,4.979V1.149Zm6.5.613V4.979h3.409ZM8.216,13.4H2.784a.576.576,0,1,1,0-1.149H8.216a.576.576,0,1,1,0,1.149Zm2.173-2.553H2.784a.576.576,0,1,1,0-1.149h7.605a.576.576,0,1,1,0,1.149ZM7.13,8.3H2.784a.576.576,0,1,1,0-1.149H7.13a.576.576,0,1,1,0,1.149Z" transform="translate(0 0)" fill="#cecccc"/>
</svg>
