<svg id="Group_156" data-name="Group 156" xmlns="http://www.w3.org/2000/svg" width="15.646" height="15.646" viewBox="0 0 15.646 15.646">
  <rect id="Rectangle_45_Copy_21" data-name="Rectangle 45 Copy 21" width="15.646" height="15.646" fill="none"/>
  <g id="key" transform="translate(0.98 0.978)">
    <path id="Shape" d="M9.281,13.682A4.4,4.4,0,0,1,5.8,6.582L.161.939a.55.55,0,0,1,0-.778.55.55,0,0,1,.778,0L6.58,5.8a4.417,4.417,0,0,1,2.7-.924,4.4,4.4,0,1,1,0,8.8Zm0-7.7a3.3,3.3,0,1,0,2.334.967A3.279,3.279,0,0,0,9.28,5.98ZM4.4,3.6h0L3.618,2.82,4.785,1.653a.543.543,0,0,1,.388-.161.549.549,0,0,1,.39.161.55.55,0,0,1,0,.778L4.4,3.6ZM2.925,2.13h0l-.777-.778L3.315.184a.55.55,0,1,1,.778.778L2.926,2.129Z" transform="translate(0 0)" fill="#41bfe7"/>
  </g>
</svg>
