<svg id="Group_13" data-name="Group 13" xmlns="http://www.w3.org/2000/svg" width="23.959" height="23.985" viewBox="0 0 23.959 23.985">
  <path id="Shape" d="M11.979,23.985A11.985,11.985,0,0,1,0,11.993a11.979,11.979,0,1,1,20.45,8.48A11.894,11.894,0,0,1,11.979,23.985ZM10.4,7.469c-.072,0-.15,0-.23.011a4.049,4.049,0,0,0-.956.22,5.923,5.923,0,0,0-1.306.653,7.822,7.822,0,0,0-1.149.9c-.294.283-.594.589-.892.911-.268.291-.473.526-.625.718l-.2.3a6.16,6.16,0,0,0-.9,1.583,3.375,3.375,0,0,0-.276,1.2v.387a3.957,3.957,0,0,0,1.572,2.715,6,6,0,0,0,1.408.736,9.049,9.049,0,0,0,1.553.442,13.57,13.57,0,0,0,1.572.193c.213.019.45.028.7.028a9.777,9.777,0,0,0,2.12-.239,8.556,8.556,0,0,0,2.721-1.114,4.541,4.541,0,0,0,1.775-1.9A2.885,2.885,0,0,0,17.611,14a1.808,1.808,0,0,0-.194-.93,2.357,2.357,0,0,0-.524-.634,2.607,2.607,0,0,0-.607-.406,2.05,2.05,0,0,0-.506-.166.582.582,0,0,1-.358-.164.173.173,0,0,1-.028-.2l.056-.092a.215.215,0,0,0,.037-.056c.014-.025.039-.08.074-.157a1.229,1.229,0,0,0,.083-.238,2.192,2.192,0,0,0,.046-.3,1.28,1.28,0,0,0-.009-.331,1.5,1.5,0,0,0-.111-.34,1.15,1.15,0,0,0-.23-.332,1.236,1.236,0,0,0-.671-.332,2.4,2.4,0,0,0-.442-.039,2.455,2.455,0,0,0-.385.03,7.376,7.376,0,0,0-.782.166,6.291,6.291,0,0,0-.607.194l-.239.111a2.559,2.559,0,0,1-.3.074.673.673,0,0,1-.086.007.236.236,0,0,1-.1-.017.479.479,0,0,1-.1-.055c-.024-.019-.033-.062-.027-.13,0-.043.009-.108.018-.175.007-.051.022-.126.046-.23s.042-.187.055-.248a2.934,2.934,0,0,0-.027-.414,2.161,2.161,0,0,0-.12-.433.938.938,0,0,0-.266-.386,1.4,1.4,0,0,0-.442-.239A1.451,1.451,0,0,0,10.4,7.469Zm5.1-.633a4.143,4.143,0,0,1,.451.028A2.775,2.775,0,0,1,16.546,7a4.741,4.741,0,0,1,.643.276,3.076,3.076,0,0,1,.644.46,3.2,3.2,0,0,1,.561.681,3.018,3.018,0,0,1,.184,2.1.08.08,0,0,1-.009.037.466.466,0,0,0-.028.092c-.01.045-.022.089-.037.139a1.609,1.609,0,0,0-.037.166.96.96,0,0,0-.019.175.42.42,0,0,0,.092.276.5.5,0,0,0,.23.157,1.025,1.025,0,0,0,.322.046c.341,0,.545-.211.607-.626a5.562,5.562,0,0,0,.248-1.372,4.222,4.222,0,0,0-.092-1.15,3.789,3.789,0,0,0-.358-.93,3.108,3.108,0,0,0-.553-.736,4.5,4.5,0,0,0-.7-.553,4.751,4.751,0,0,0-.745-.4,5.005,5.005,0,0,0-.745-.239,3.478,3.478,0,0,0-.771-.077,7.631,7.631,0,0,0-1.4.15.055.055,0,0,0-.037.019l-.018.037-.018.018a.6.6,0,0,0-.331.23.646.646,0,0,0,.055.838A.613.613,0,0,0,14.679,7h.055a.415.415,0,0,0,.083-.019,1.042,1.042,0,0,1,.138-.027.871.871,0,0,0,.157-.037c.061-.02.107-.038.147-.056A.715.715,0,0,1,15.506,6.836Zm.156,1.936c.608,0,.945.333,1,.99a1.575,1.575,0,0,1-.037.589.441.441,0,0,0,.441.442.4.4,0,0,0,.2-.055.439.439,0,0,0,.147-.138.5.5,0,0,0,.074-.175.076.076,0,0,0,.018-.055c.147-1.393-.348-2.2-1.471-2.393a2.845,2.845,0,0,0-.529-.051,2.273,2.273,0,0,0-.391.032.381.381,0,0,0-.22.065.574.574,0,0,0-.157.165.393.393,0,0,0-.065.212.441.441,0,0,0,.442.442A2.445,2.445,0,0,1,15.662,8.772ZM9.824,17.6a5.58,5.58,0,0,1-3-.782,2.549,2.549,0,0,1-1.388-2.191,2.729,2.729,0,0,1,1.379-2.255,6.411,6.411,0,0,1,3.384-1.04c.15-.007.294-.01.427-.01a6.1,6.1,0,0,1,2.956.672,2.3,2.3,0,0,1,1.38,2.062,3.006,3.006,0,0,1-1.408,2.384A5.94,5.94,0,0,1,10.2,17.588C10.08,17.594,9.954,17.6,9.824,17.6Zm.283-5.137a3.675,3.675,0,0,0-.441.028,3.1,3.1,0,0,0-.956.249,2.153,2.153,0,0,0-.661.442,2.823,2.823,0,0,0-.405.534,2.052,2.052,0,0,0-.23.562,3.6,3.6,0,0,0-.083.506c-.013.158-.019.275-.018.359l.018.147v.074a1.325,1.325,0,0,0,.037.221,1.507,1.507,0,0,0,.1.3,1.268,1.268,0,0,0,.211.3,1.3,1.3,0,0,0,.35.276,3.829,3.829,0,0,0,1.661.423,2.813,2.813,0,0,0,.6-.064,2.866,2.866,0,0,0,1.692-1.059,1.649,1.649,0,0,0,.34-.773,2.193,2.193,0,0,0-.037-.93,2.389,2.389,0,0,0-.414-.856,1.873,1.873,0,0,0-.873-.6A2.592,2.592,0,0,0,10.107,12.46Z" fill="rgba(255,255,255,0.65)"/>
  <path id="Shape-2" data-name="Shape" d="M.451,0A.385.385,0,0,0,.166.095L.111.168A.118.118,0,0,0,.055.224L.018.3A.2.2,0,0,0,0,.389V.463A.166.166,0,0,0,.018.537L.055.61A.214.214,0,0,0,.248.73.406.406,0,0,0,.515.647h0A.7.7,0,0,0,.634.491.455.455,0,0,0,.69.316.228.228,0,0,0,.644.15.232.232,0,0,0,.451,0Z" transform="translate(10.053 13.996)" fill="rgba(255,255,255,0.65)"/>
  <path id="Shape-3" data-name="Shape" d="M1.628.256A.942.942,0,0,0,1.435.109.8.8,0,0,0,1.168.017,1.128,1.128,0,0,0,.846.007.836.836,0,0,0,.414.164,1.046,1.046,0,0,0,.111.5.788.788,0,0,0,0,.892a.53.53,0,0,0,.028.175A.558.558,0,0,0,.1,1.214q.045.064.1.129a.378.378,0,0,0,.138.1q.082.036.165.064a.789.789,0,0,0,.184.037A.84.84,0,0,0,.9,1.536h0a.943.943,0,0,0,.441-.147,1.048,1.048,0,0,0,.322-.313A.7.7,0,0,0,1.784.688.767.767,0,0,0,1.747.449.486.486,0,0,0,1.628.256Z" transform="translate(8.104 14.432)" fill="rgba(255,255,255,0.65)"/>
</svg>
