<svg id="我的接单选中" xmlns="http://www.w3.org/2000/svg" width="17.069" height="17.069" viewBox="0 0 17.069 17.069">
  <rect id="Rectangle_48_Copy_18" data-name="Rectangle 48 Copy 18" width="17.069" height="17.069" fill="none"/>
  <g id="desktop" transform="translate(1.084 2.15)">
    <path id="Shape" d="M10.42,12.757H4.445a.527.527,0,0,1,0-1.054H6.9V9.9H.954A.955.955,0,0,1,0,8.951v-8A.955.955,0,0,1,.954,0H13.936a.955.955,0,0,1,.953.954v8a.955.955,0,0,1-.953.954H7.955v1.8H10.42a.527.527,0,0,1,0,1.054ZM1.054,1.054v7.8H13.836v-7.8Z" transform="translate(0 0)" fill="#0080ff"/>
  </g>
</svg>
