<svg xmlns="http://www.w3.org/2000/svg" width="24" height="24" viewBox="0 0 24 24">
  <path id="Shape" d="M12,24A12,12,0,1,1,23.045,16.69c-1.131-.444-5.029-1.971-7.784-2.956a15.383,15.383,0,0,0,1.61-4.32H12.985V7.86h4.858V7.082H12.985V5.139H11.237c-.359,0-.389.192-.389.389V7.082H6.378V7.86h4.469V9.414H7.156v.778h7.189l-.005.023a18.037,18.037,0,0,1-.98,2.816A18.056,18.056,0,0,0,8.4,11.894h-.07a4.809,4.809,0,0,0-3.418,1.182,2.869,2.869,0,0,0-.824,1.54,2.249,2.249,0,0,0-.04.564,2.131,2.131,0,0,0,.005.305,2,2,0,0,0,.078.426,2.209,2.209,0,0,0,.179.455l-.01-.025L4.28,16.3a4.068,4.068,0,0,0,.637.886A4,4,0,0,0,7.037,18.3a4.9,4.9,0,0,0,.991.1,6.906,6.906,0,0,0,1.99-.328,9.281,9.281,0,0,0,4.144-2.777c2.168,1.058,5.664,2.794,7.556,3.734a12.146,12.146,0,0,1-4.18,3.614A12,12,0,0,1,12,24ZM7.642,17.283c-.08,0-.16,0-.238-.009a3.579,3.579,0,0,1-2.146-.909A2.05,2.05,0,0,1,4.725,14.5a1.815,1.815,0,0,1,.675-.984,4.994,4.994,0,0,1,2.125-.5c.084,0,.17-.005.255-.005a10.447,10.447,0,0,1,4.73,1.441,7.585,7.585,0,0,1-1.65,1.633A6.045,6.045,0,0,1,7.642,17.283Z" fill="#41bfe7"/>
</svg>
