<svg id="Group_152" data-name="Group 152" xmlns="http://www.w3.org/2000/svg" width="16.341" height="16.341" viewBox="0 0 16.341 16.341">
  <rect id="Rectangle_45_Copy_17" data-name="Rectangle 45 Copy 17" width="16.341" height="16.341" fill="none"/>
  <g id="database" transform="translate(2.043 0)">
    <path id="Shape" d="M11.107,16.341H1.149A1.15,1.15,0,0,1,0,15.192V1.149A1.15,1.15,0,0,1,1.149,0h9.958a1.15,1.15,0,0,1,1.149,1.149V15.192A1.15,1.15,0,0,1,11.107,16.341ZM1.149,11.157v3.891h9.958V11.154a.016.016,0,0,1-.016.016H1.165A.015.015,0,0,1,1.149,11.157Zm.016-1.135h9.926a.016.016,0,0,1,.016.016V6.144a.016.016,0,0,1-.016.016H1.165a.016.016,0,0,1-.016-.016v3.894A.016.016,0,0,1,1.165,10.021Zm0-5.011h9.926a.016.016,0,0,1,.016.016V1.149H1.149V5.027A.016.016,0,0,1,1.165,5.011ZM3.08,13.676a.574.574,0,1,1,.575-.575A.575.575,0,0,1,3.08,13.676Zm0-5.011a.574.574,0,1,1,.575-.575A.575.575,0,0,1,3.08,8.665Zm0-5.011a.574.574,0,1,1,.575-.575A.575.575,0,0,1,3.08,3.655Z" transform="translate(0 0)" fill="#41bfe7"/>
  </g>
</svg>
