<svg xmlns="http://www.w3.org/2000/svg" width="24" height="24" viewBox="0 0 24 24">
  <path id="Shape" d="M12,24A12,12,0,0,1,3.515,3.515,12,12,0,0,1,20.486,20.486,11.925,11.925,0,0,1,12,24ZM5.378,9.607h0L4.364,11.154l1.88,1.155A1.7,1.7,0,0,1,7,13.159a1.233,1.233,0,0,1-.1.966A22.328,22.328,0,0,1,3.6,17.7l2.453,1.51c.645-1.384,1.028-2.168,1.281-2.686l0,0a9.928,9.928,0,0,0,.731-1.761c.369-1.127.6-2.281-.212-3.083A15.332,15.332,0,0,0,5.378,9.608ZM14.637,17.7l-.3,1.229a8.612,8.612,0,0,0,2.165.29c1.564,0,3.482-.519,3.738-2.991a25.827,25.827,0,0,0-.111-7.036c0-.023-.333-2.312-4.195-2.312a17.646,17.646,0,0,0-4.777.8A11.484,11.484,0,0,0,11.7,6.613L9.582,6s0,0,0,.01a13.814,13.814,0,0,1-1.09,2.512,1.107,1.107,0,0,0-.924-.465,1.03,1.03,0,0,0-1.082.967,1.013,1.013,0,0,0,.937.958c-.079.079-.149.145-.214.2.088.053,1.432.846,1.455.846a15.2,15.2,0,0,0,1.133-1.3c.335-.15.665-.294.98-.426a13.258,13.258,0,0,1-1.656,2.485l.891.8c.01-.009.623-.614,1.271-1.319h.758V12.6H9.084v1.065h2.954v2.552l-.044,0-.067,0c-.35-.018-.838-.079-1.032-.392a1.989,1.989,0,0,1-.085-1.16c.015-.141.029-.273.033-.387H8.807l-.075.038a3.688,3.688,0,0,0,.422,2.671,1.986,1.986,0,0,0,1.637.677h.095c.112,0,.226,0,.336,0A7.347,7.347,0,0,0,15.9,16.3l.3,1.132,1.672-.711-1.129-2.84-1.36.432.255.975a4.186,4.186,0,0,1-1.184.612V13.669h2.88V12.6H14.45V11.273h2.892V10.209H12.2a4.128,4.128,0,0,0,.738-1.154l-.894-.248a11.835,11.835,0,0,1,3.805-.872,2.267,2.267,0,0,1,1.665.542,1.985,1.985,0,0,1,.489,1.47v6.086a2.008,2.008,0,0,1-.425,1.405,1.852,1.852,0,0,1-1.448.542c-.076,0-.156,0-.237-.008ZM7.565,10a1.22,1.22,0,0,1-.145-.009A6.973,6.973,0,0,0,8.489,8.527a.888.888,0,0,1,.157.5A1.03,1.03,0,0,1,7.565,10Z" fill="rgba(255,255,255,0.65)"/>
</svg>
