<svg xmlns="http://www.w3.org/2000/svg" width="16.544" height="16.544" viewBox="0 0 16.544 16.544">
  <g id="我的节点" transform="translate(0)">
    <rect id="Rectangle_44_Copy_3" data-name="Rectangle 44 Copy 3" width="16.544" height="16.544" fill="none"/>
    <g id="fork" transform="translate(2.068 0)">
      <path id="Shape" d="M6.2,16.544a2.069,2.069,0,0,1-.582-4.054V10.739L1.473,6.59l.005,0V4.051A2.068,2.068,0,1,1,4.136,2.068,2.078,2.078,0,0,1,2.642,4.055V6.113L6.2,9.671,9.758,6.113V4.054a2.068,2.068,0,1,1,1.163,0V6.586l0,0L6.785,10.731v1.759A2.069,2.069,0,0,1,6.2,16.544Zm0-2.973a.9.9,0,1,0,.9.9A.906.906,0,0,0,6.2,13.571ZM10.34,1.163a.9.9,0,1,0,.9.9A.906.906,0,0,0,10.34,1.163Zm-8.272,0a.9.9,0,1,0,.905.9A.906.906,0,0,0,2.068,1.163Z" transform="translate(0 0)" fill="#cecccc"/>
    </g>
  </g>
</svg>
