<?xml version="1.0" standalone="no"?><!DOCTYPE svg PUBLIC "-//W3C//DTD SVG 1.1//EN" "http://www.w3.org/Graphics/SVG/1.1/DTD/svg11.dtd"><svg t="1564985796412" class="icon" viewBox="0 0 1024 1024" version="1.1" xmlns="http://www.w3.org/2000/svg" p-id="2306" width="200" height="200" xmlns:xlink="http://www.w3.org/1999/xlink"><defs><style type="text/css"></style></defs><path d="M926.001035 285.545408 230.820016 112.174825c-11.351536-2.858094-25.650193-0.76134-34.096563 5.850242-8.858762 6.919597-17.10047 17.777899-17.10047 30.558993l0 133.456524-48.090275 0c-34.83539 0-67.543326 31.756261-67.543326 66.591651l0 505.398652c0 34.83539 32.707936 59.389622 67.543326 59.389622l768.626775 0c34.834366 0 59.222823-24.554232 59.222823-59.389622L959.382307 377.459794l0-28.826536 0-16.507976C959.382307 311.231417 947.012581 290.769386 926.001035 285.545408zM230.552933 154.334018l513.582031 127.706567L230.513024 282.040584 230.552933 154.334018zM917.426753 849.418846c0 10.105149-8.454556 22.046109-22.410406 22.046109L134.811382 871.464955c-13.95585 0-28.866445-11.94096-28.866445-22.046109L105.944937 338.498434c0-10.105149 14.910595-14.502295 28.866445-14.502295l760.204965 0c13.95585 0 22.410406 4.397147 22.410406 14.502295L917.426753 849.418846z" p-id="2307" fill="#cccccc"></path><path d="M226.295979 543.42778c-31.93227 0-57.909921 25.983791-57.909921 57.909921s25.978674 57.909921 57.909921 57.909921 57.909921-25.983791 57.909921-57.909921S258.227226 543.42778 226.295979 543.42778zM226.295979 627.660206c-14.513552 0-26.322505-11.803837-26.322505-26.322505 0-14.518668 11.808954-26.322505 26.322505-26.322505 14.513552 0 26.322505 11.803837 26.322505 26.322505C252.618485 615.856369 240.809531 627.660206 226.295979 627.660206z" p-id="2308" fill="#cccccc"></path></svg>